solid OpenSCAD_Model
  facet normal 0.994522 0.104529 0
    outer loop
      vertex 10 0 20
      vertex 9.78148 2.07912 0
      vertex 9.78148 2.07912 20
    endloop
  endfacet
  facet normal 0.994522 0.104529 0
    outer loop
      vertex 9.78148 2.07912 0
      vertex 10 0 20
      vertex 10 0 0
    endloop
  endfacet
  facet normal -0.994522 0.104529 0
    outer loop
      vertex -10 0 0
      vertex -9.78148 2.07912 20
      vertex -9.78148 2.07912 0
    endloop
  endfacet
  facet normal -0.994522 0.104529 0
    outer loop
      vertex -9.78148 2.07912 20
      vertex -10 0 0
      vertex -10 0 20
    endloop
  endfacet
  facet normal 0 1 -0
    outer loop
      vertex 1.04528 9.94522 0
      vertex -1.04528 9.94522 20
      vertex 1.04528 9.94522 20
    endloop
  endfacet
  facet normal 0 1 0
    outer loop
      vertex -1.04528 9.94522 20
      vertex 1.04528 9.94522 0
      vertex -1.04528 9.94522 0
    endloop
  endfacet
  facet normal 0 -1 0
    outer loop
      vertex -1.04528 -9.94522 0
      vertex 1.04528 -9.94522 20
      vertex -1.04528 -9.94522 20
    endloop
  endfacet
  facet normal 0 -1 -0
    outer loop
      vertex 1.04528 -9.94522 20
      vertex -1.04528 -9.94522 0
      vertex 1.04528 -9.94522 0
    endloop
  endfacet
  facet normal 0.587785 0.809017 -0
    outer loop
      vertex 6.69131 7.43145 0
      vertex 5 8.66025 20
      vertex 6.69131 7.43145 20
    endloop
  endfacet
  facet normal 0.587785 0.809017 0
    outer loop
      vertex 5 8.66025 20
      vertex 6.69131 7.43145 0
      vertex 5 8.66025 0
    endloop
  endfacet
  facet normal 0.406737 0.913545 -0
    outer loop
      vertex 5 8.66025 0
      vertex 3.09017 9.51056 20
      vertex 5 8.66025 20
    endloop
  endfacet
  facet normal 0.406737 0.913545 0
    outer loop
      vertex 3.09017 9.51056 20
      vertex 5 8.66025 0
      vertex 3.09017 9.51056 0
    endloop
  endfacet
  facet normal -0.743145 0.669131 0
    outer loop
      vertex -8.09017 5.87785 0
      vertex -6.69131 7.43145 20
      vertex -6.69131 7.43145 0
    endloop
  endfacet
  facet normal -0.743145 0.669131 0
    outer loop
      vertex -6.69131 7.43145 20
      vertex -8.09017 5.87785 0
      vertex -8.09017 5.87785 20
    endloop
  endfacet
  facet normal -0.866026 0.5 0
    outer loop
      vertex -9.13545 4.06737 0
      vertex -8.09017 5.87785 20
      vertex -8.09017 5.87785 0
    endloop
  endfacet
  facet normal -0.866026 0.5 0
    outer loop
      vertex -8.09017 5.87785 20
      vertex -9.13545 4.06737 0
      vertex -9.13545 4.06737 20
    endloop
  endfacet
  facet normal -0.406737 0.913545 0
    outer loop
      vertex -3.09017 9.51056 0
      vertex -5 8.66025 20
      vertex -3.09017 9.51056 20
    endloop
  endfacet
  facet normal -0.406737 0.913545 0
    outer loop
      vertex -5 8.66025 20
      vertex -3.09017 9.51056 0
      vertex -5 8.66025 0
    endloop
  endfacet
  facet normal 0.951057 -0.309017 0
    outer loop
      vertex 9.13545 -4.06737 20
      vertex 9.78148 -2.07912 0
      vertex 9.78148 -2.07912 20
    endloop
  endfacet
  facet normal 0.951057 -0.309017 0
    outer loop
      vertex 9.78148 -2.07912 0
      vertex 9.13545 -4.06737 20
      vertex 9.13545 -4.06737 0
    endloop
  endfacet
  facet normal 0.866026 0.5 0
    outer loop
      vertex 9.13545 4.06737 20
      vertex 8.09017 5.87785 0
      vertex 8.09017 5.87785 20
    endloop
  endfacet
  facet normal 0.866026 0.5 0
    outer loop
      vertex 8.09017 5.87785 0
      vertex 9.13545 4.06737 20
      vertex 9.13545 4.06737 0
    endloop
  endfacet
  facet normal 0.951057 0.309017 0
    outer loop
      vertex 9.78148 2.07912 20
      vertex 9.13545 4.06737 0
      vertex 9.13545 4.06737 20
    endloop
  endfacet
  facet normal 0.951057 0.309017 0
    outer loop
      vertex 9.13545 4.06737 0
      vertex 9.78148 2.07912 20
      vertex 9.78148 2.07912 0
    endloop
  endfacet
  facet normal 0.743145 0.669131 0
    outer loop
      vertex 8.09017 5.87785 20
      vertex 6.69131 7.43145 0
      vertex 6.69131 7.43145 20
    endloop
  endfacet
  facet normal 0.743145 0.669131 0
    outer loop
      vertex 6.69131 7.43145 0
      vertex 8.09017 5.87785 20
      vertex 8.09017 5.87785 0
    endloop
  endfacet
  facet normal 0.207911 0.978148 -0
    outer loop
      vertex 3.09017 9.51056 0
      vertex 1.04528 9.94522 20
      vertex 3.09017 9.51056 20
    endloop
  endfacet
  facet normal 0.207911 0.978148 0
    outer loop
      vertex 1.04528 9.94522 20
      vertex 3.09017 9.51056 0
      vertex 1.04528 9.94522 0
    endloop
  endfacet
  facet normal -0.951057 0.309017 0
    outer loop
      vertex -9.78148 2.07912 0
      vertex -9.13545 4.06737 20
      vertex -9.13545 4.06737 0
    endloop
  endfacet
  facet normal -0.951057 0.309017 0
    outer loop
      vertex -9.13545 4.06737 20
      vertex -9.78148 2.07912 0
      vertex -9.78148 2.07912 20
    endloop
  endfacet
  facet normal 0 0 1
    outer loop
      vertex 9.7 0 20
      vertex 10 0 20
      vertex 9.78148 2.07912 20
    endloop
  endfacet
  facet normal 0 0 1
    outer loop
      vertex 10 0 20
      vertex 9.7 0 20
      vertex 9.78148 -2.07912 20
    endloop
  endfacet
  facet normal 0 0 1
    outer loop
      vertex 9.78148 2.07912 20
      vertex 9.48803 2.01674 20
      vertex 9.7 0 20
    endloop
  endfacet
  facet normal 0 0 1
    outer loop
      vertex 9.13545 4.06737 20
      vertex 9.48803 2.01674 20
      vertex 9.78148 2.07912 20
    endloop
  endfacet
  facet normal 0 0 1
    outer loop
      vertex 9.13545 4.06737 20
      vertex 8.86139 3.94534 20
      vertex 9.48803 2.01674 20
    endloop
  endfacet
  facet normal 0 0 1
    outer loop
      vertex 8.09017 5.87785 20
      vertex 8.86139 3.94534 20
      vertex 9.13545 4.06737 20
    endloop
  endfacet
  facet normal 0 0 1
    outer loop
      vertex 8.09017 5.87785 20
      vertex 7.84746 5.70152 20
      vertex 8.86139 3.94534 20
    endloop
  endfacet
  facet normal 0 0 1
    outer loop
      vertex 6.69131 7.43145 20
      vertex 7.84746 5.70152 20
      vertex 8.09017 5.87785 20
    endloop
  endfacet
  facet normal 0 0 1
    outer loop
      vertex 6.69131 7.43145 20
      vertex 6.49057 7.2085 20
      vertex 7.84746 5.70152 20
    endloop
  endfacet
  facet normal 0 0 1
    outer loop
      vertex 5 8.66025 20
      vertex 6.49057 7.2085 20
      vertex 6.69131 7.43145 20
    endloop
  endfacet
  facet normal 0 0 1
    outer loop
      vertex 5 8.66025 20
      vertex 4.85 8.40045 20
      vertex 6.49057 7.2085 20
    endloop
  endfacet
  facet normal 0 0 1
    outer loop
      vertex 3.09017 9.51056 20
      vertex 4.85 8.40045 20
      vertex 5 8.66025 20
    endloop
  endfacet
  facet normal 0 0 1
    outer loop
      vertex 3.09017 9.51056 20
      vertex 2.99746 9.22525 20
      vertex 4.85 8.40045 20
    endloop
  endfacet
  facet normal 0 0 1
    outer loop
      vertex 1.04528 9.94522 20
      vertex 2.99746 9.22525 20
      vertex 3.09017 9.51056 20
    endloop
  endfacet
  facet normal 0 0 1
    outer loop
      vertex 1.04528 9.94522 20
      vertex 1.01393 9.64686 20
      vertex 2.99746 9.22525 20
    endloop
  endfacet
  facet normal 0 0 1
    outer loop
      vertex 1.04528 9.94522 20
      vertex -1.01393 9.64686 20
      vertex 1.01393 9.64686 20
    endloop
  endfacet
  facet normal -0 0 1
    outer loop
      vertex -1.04528 9.94522 20
      vertex -1.01393 9.64686 20
      vertex 1.04528 9.94522 20
    endloop
  endfacet
  facet normal 0 0 1
    outer loop
      vertex -1.04528 9.94522 20
      vertex -2.99746 9.22525 20
      vertex -1.01393 9.64686 20
    endloop
  endfacet
  facet normal -0 0 1
    outer loop
      vertex -3.09017 9.51056 20
      vertex -2.99746 9.22525 20
      vertex -1.04528 9.94522 20
    endloop
  endfacet
  facet normal 0 0 1
    outer loop
      vertex -3.09017 9.51056 20
      vertex -4.85 8.40045 20
      vertex -2.99746 9.22525 20
    endloop
  endfacet
  facet normal -0 0 1
    outer loop
      vertex -5 8.66025 20
      vertex -4.85 8.40045 20
      vertex -3.09017 9.51056 20
    endloop
  endfacet
  facet normal 0 0 1
    outer loop
      vertex -5 8.66025 20
      vertex -6.49057 7.2085 20
      vertex -4.85 8.40045 20
    endloop
  endfacet
  facet normal -0 0 1
    outer loop
      vertex -6.69131 7.43145 20
      vertex -6.49057 7.2085 20
      vertex -5 8.66025 20
    endloop
  endfacet
  facet normal 0 0 1
    outer loop
      vertex -6.69131 7.43145 20
      vertex -7.84746 5.70152 20
      vertex -6.49057 7.2085 20
    endloop
  endfacet
  facet normal -0 0 1
    outer loop
      vertex -8.09017 5.87785 20
      vertex -7.84746 5.70152 20
      vertex -6.69131 7.43145 20
    endloop
  endfacet
  facet normal 0 0 1
    outer loop
      vertex -8.09017 5.87785 20
      vertex -8.86139 3.94534 20
      vertex -7.84746 5.70152 20
    endloop
  endfacet
  facet normal -0 0 1
    outer loop
      vertex -9.13545 4.06737 20
      vertex -8.86139 3.94534 20
      vertex -8.09017 5.87785 20
    endloop
  endfacet
  facet normal 0 0 1
    outer loop
      vertex -9.13545 4.06737 20
      vertex -9.48803 2.01674 20
      vertex -8.86139 3.94534 20
    endloop
  endfacet
  facet normal 0 0 1
    outer loop
      vertex -9.48803 2.01674 20
      vertex -9.78148 2.07912 20
      vertex -9.7 0 20
    endloop
  endfacet
  facet normal -0 0 1
    outer loop
      vertex -9.78148 2.07912 20
      vertex -9.48803 2.01674 20
      vertex -9.13545 4.06737 20
    endloop
  endfacet
  facet normal -0 0 1
    outer loop
      vertex 9.48803 -2.01674 20
      vertex 9.78148 -2.07912 20
      vertex 9.7 0 20
    endloop
  endfacet
  facet normal 0 0 1
    outer loop
      vertex 9.48803 -2.01674 20
      vertex 9.13545 -4.06737 20
      vertex 9.78148 -2.07912 20
    endloop
  endfacet
  facet normal -0 0 1
    outer loop
      vertex 8.86139 -3.94534 20
      vertex 9.13545 -4.06737 20
      vertex 9.48803 -2.01674 20
    endloop
  endfacet
  facet normal 0 0 1
    outer loop
      vertex 8.86139 -3.94534 20
      vertex 8.09017 -5.87785 20
      vertex 9.13545 -4.06737 20
    endloop
  endfacet
  facet normal -0 0 1
    outer loop
      vertex 7.84746 -5.70152 20
      vertex 8.09017 -5.87785 20
      vertex 8.86139 -3.94534 20
    endloop
  endfacet
  facet normal 0 0 1
    outer loop
      vertex 7.84746 -5.70152 20
      vertex 6.69131 -7.43145 20
      vertex 8.09017 -5.87785 20
    endloop
  endfacet
  facet normal -0 0 1
    outer loop
      vertex 6.49057 -7.2085 20
      vertex 6.69131 -7.43145 20
      vertex 7.84746 -5.70152 20
    endloop
  endfacet
  facet normal 0 0 1
    outer loop
      vertex 6.49057 -7.2085 20
      vertex 5 -8.66025 20
      vertex 6.69131 -7.43145 20
    endloop
  endfacet
  facet normal -0 0 1
    outer loop
      vertex 4.85 -8.40045 20
      vertex 5 -8.66025 20
      vertex 6.49057 -7.2085 20
    endloop
  endfacet
  facet normal 0 0 1
    outer loop
      vertex 4.85 -8.40045 20
      vertex 3.09017 -9.51056 20
      vertex 5 -8.66025 20
    endloop
  endfacet
  facet normal -0 0 1
    outer loop
      vertex 2.99746 -9.22525 20
      vertex 3.09017 -9.51056 20
      vertex 4.85 -8.40045 20
    endloop
  endfacet
  facet normal 0 0 1
    outer loop
      vertex 2.99746 -9.22525 20
      vertex 1.04528 -9.94522 20
      vertex 3.09017 -9.51056 20
    endloop
  endfacet
  facet normal -0 0 1
    outer loop
      vertex 1.01393 -9.64686 20
      vertex 1.04528 -9.94522 20
      vertex 2.99746 -9.22525 20
    endloop
  endfacet
  facet normal -0 0 1
    outer loop
      vertex -1.01393 -9.64686 20
      vertex 1.04528 -9.94522 20
      vertex 1.01393 -9.64686 20
    endloop
  endfacet
  facet normal 0 0 1
    outer loop
      vertex -1.01393 -9.64686 20
      vertex -1.04528 -9.94522 20
      vertex 1.04528 -9.94522 20
    endloop
  endfacet
  facet normal 0 0 1
    outer loop
      vertex -2.99746 -9.22525 20
      vertex -1.04528 -9.94522 20
      vertex -1.01393 -9.64686 20
    endloop
  endfacet
  facet normal 0 0 1
    outer loop
      vertex -2.99746 -9.22525 20
      vertex -3.09017 -9.51056 20
      vertex -1.04528 -9.94522 20
    endloop
  endfacet
  facet normal 0 0 1
    outer loop
      vertex -4.85 -8.40045 20
      vertex -3.09017 -9.51056 20
      vertex -2.99746 -9.22525 20
    endloop
  endfacet
  facet normal 0 0 1
    outer loop
      vertex -4.85 -8.40045 20
      vertex -5 -8.66025 20
      vertex -3.09017 -9.51056 20
    endloop
  endfacet
  facet normal 0 0 1
    outer loop
      vertex -6.49057 -7.2085 20
      vertex -5 -8.66025 20
      vertex -4.85 -8.40045 20
    endloop
  endfacet
  facet normal 0 0 1
    outer loop
      vertex -6.49057 -7.2085 20
      vertex -6.69131 -7.43145 20
      vertex -5 -8.66025 20
    endloop
  endfacet
  facet normal 0 0 1
    outer loop
      vertex -7.84746 -5.70152 20
      vertex -6.69131 -7.43145 20
      vertex -6.49057 -7.2085 20
    endloop
  endfacet
  facet normal 0 0 1
    outer loop
      vertex -7.84746 -5.70152 20
      vertex -8.09017 -5.87785 20
      vertex -6.69131 -7.43145 20
    endloop
  endfacet
  facet normal 0 0 1
    outer loop
      vertex -8.86139 -3.94534 20
      vertex -8.09017 -5.87785 20
      vertex -7.84746 -5.70152 20
    endloop
  endfacet
  facet normal 0 0 1
    outer loop
      vertex -8.86139 -3.94534 20
      vertex -9.13545 -4.06737 20
      vertex -8.09017 -5.87785 20
    endloop
  endfacet
  facet normal 0 0 1
    outer loop
      vertex -9.48803 -2.01674 20
      vertex -9.13545 -4.06737 20
      vertex -8.86139 -3.94534 20
    endloop
  endfacet
  facet normal 0 0 1
    outer loop
      vertex -9.48803 -2.01674 20
      vertex -9.78148 -2.07912 20
      vertex -9.13545 -4.06737 20
    endloop
  endfacet
  facet normal 0 0 1
    outer loop
      vertex -9.7 0 20
      vertex -9.78148 -2.07912 20
      vertex -9.48803 -2.01674 20
    endloop
  endfacet
  facet normal 0 0 1
    outer loop
      vertex -10 0 20
      vertex -9.7 0 20
      vertex -9.78148 2.07912 20
    endloop
  endfacet
  facet normal 0 0 1
    outer loop
      vertex -9.7 0 20
      vertex -10 0 20
      vertex -9.78148 -2.07912 20
    endloop
  endfacet
  facet normal -0.587785 0.809017 0
    outer loop
      vertex -5 8.66025 0
      vertex -6.69131 7.43145 20
      vertex -5 8.66025 20
    endloop
  endfacet
  facet normal -0.587785 0.809017 0
    outer loop
      vertex -6.69131 7.43145 20
      vertex -5 8.66025 0
      vertex -6.69131 7.43145 0
    endloop
  endfacet
  facet normal -0.207911 0.978148 0
    outer loop
      vertex -1.04528 9.94522 0
      vertex -3.09017 9.51056 20
      vertex -1.04528 9.94522 20
    endloop
  endfacet
  facet normal -0.207911 0.978148 0
    outer loop
      vertex -3.09017 9.51056 20
      vertex -1.04528 9.94522 0
      vertex -3.09017 9.51056 0
    endloop
  endfacet
  facet normal 0.994522 -0.104529 0
    outer loop
      vertex 9.78148 -2.07912 20
      vertex 10 0 0
      vertex 10 0 20
    endloop
  endfacet
  facet normal 0.994522 -0.104529 0
    outer loop
      vertex 10 0 0
      vertex 9.78148 -2.07912 20
      vertex 9.78148 -2.07912 0
    endloop
  endfacet
  facet normal 0 0 -1
    outer loop
      vertex 9.7 0 0
      vertex 10 0 0
      vertex 9.78148 -2.07912 0
    endloop
  endfacet
  facet normal 0 0 -1
    outer loop
      vertex 10 0 0
      vertex 9.7 0 0
      vertex 9.78148 2.07912 0
    endloop
  endfacet
  facet normal 0 0 -1
    outer loop
      vertex 9.78148 -2.07912 0
      vertex 9.48803 -2.01674 0
      vertex 9.7 0 0
    endloop
  endfacet
  facet normal 0 0 -1
    outer loop
      vertex 9.13545 -4.06737 0
      vertex 9.48803 -2.01674 0
      vertex 9.78148 -2.07912 0
    endloop
  endfacet
  facet normal 0 0 -1
    outer loop
      vertex 9.13545 -4.06737 0
      vertex 8.86139 -3.94534 0
      vertex 9.48803 -2.01674 0
    endloop
  endfacet
  facet normal 0 0 -1
    outer loop
      vertex 8.09017 -5.87785 0
      vertex 8.86139 -3.94534 0
      vertex 9.13545 -4.06737 0
    endloop
  endfacet
  facet normal 0 0 -1
    outer loop
      vertex 8.09017 -5.87785 0
      vertex 7.84746 -5.70152 0
      vertex 8.86139 -3.94534 0
    endloop
  endfacet
  facet normal 0 0 -1
    outer loop
      vertex 6.69131 -7.43145 0
      vertex 7.84746 -5.70152 0
      vertex 8.09017 -5.87785 0
    endloop
  endfacet
  facet normal 0 0 -1
    outer loop
      vertex 6.69131 -7.43145 0
      vertex 6.49057 -7.2085 0
      vertex 7.84746 -5.70152 0
    endloop
  endfacet
  facet normal 0 0 -1
    outer loop
      vertex 5 -8.66025 0
      vertex 6.49057 -7.2085 0
      vertex 6.69131 -7.43145 0
    endloop
  endfacet
  facet normal 0 0 -1
    outer loop
      vertex 5 -8.66025 0
      vertex 4.85 -8.40045 0
      vertex 6.49057 -7.2085 0
    endloop
  endfacet
  facet normal 0 0 -1
    outer loop
      vertex 3.09017 -9.51056 0
      vertex 4.85 -8.40045 0
      vertex 5 -8.66025 0
    endloop
  endfacet
  facet normal 0 0 -1
    outer loop
      vertex 3.09017 -9.51056 0
      vertex 2.99746 -9.22525 0
      vertex 4.85 -8.40045 0
    endloop
  endfacet
  facet normal 0 0 -1
    outer loop
      vertex 1.04528 -9.94522 0
      vertex 2.99746 -9.22525 0
      vertex 3.09017 -9.51056 0
    endloop
  endfacet
  facet normal 0 0 -1
    outer loop
      vertex 1.04528 -9.94522 0
      vertex 1.01393 -9.64686 0
      vertex 2.99746 -9.22525 0
    endloop
  endfacet
  facet normal 0 0 -1
    outer loop
      vertex 1.04528 -9.94522 0
      vertex -1.01393 -9.64686 0
      vertex 1.01393 -9.64686 0
    endloop
  endfacet
  facet normal 0 0 -1
    outer loop
      vertex -1.04528 -9.94522 0
      vertex -1.01393 -9.64686 0
      vertex 1.04528 -9.94522 0
    endloop
  endfacet
  facet normal 0 0 -1
    outer loop
      vertex -1.04528 -9.94522 0
      vertex -2.99746 -9.22525 0
      vertex -1.01393 -9.64686 0
    endloop
  endfacet
  facet normal 0 0 -1
    outer loop
      vertex -3.09017 -9.51056 0
      vertex -2.99746 -9.22525 0
      vertex -1.04528 -9.94522 0
    endloop
  endfacet
  facet normal 0 0 -1
    outer loop
      vertex -3.09017 -9.51056 0
      vertex -4.85 -8.40045 0
      vertex -2.99746 -9.22525 0
    endloop
  endfacet
  facet normal 0 0 -1
    outer loop
      vertex -5 -8.66025 0
      vertex -4.85 -8.40045 0
      vertex -3.09017 -9.51056 0
    endloop
  endfacet
  facet normal 0 0 -1
    outer loop
      vertex -5 -8.66025 0
      vertex -6.49057 -7.2085 0
      vertex -4.85 -8.40045 0
    endloop
  endfacet
  facet normal 0 0 -1
    outer loop
      vertex -6.69131 -7.43145 0
      vertex -6.49057 -7.2085 0
      vertex -5 -8.66025 0
    endloop
  endfacet
  facet normal 0 0 -1
    outer loop
      vertex -6.69131 -7.43145 0
      vertex -7.84746 -5.70152 0
      vertex -6.49057 -7.2085 0
    endloop
  endfacet
  facet normal 0 0 -1
    outer loop
      vertex -8.09017 -5.87785 0
      vertex -7.84746 -5.70152 0
      vertex -6.69131 -7.43145 0
    endloop
  endfacet
  facet normal 0 0 -1
    outer loop
      vertex -8.09017 -5.87785 0
      vertex -8.86139 -3.94534 0
      vertex -7.84746 -5.70152 0
    endloop
  endfacet
  facet normal 0 0 -1
    outer loop
      vertex -9.13545 -4.06737 0
      vertex -8.86139 -3.94534 0
      vertex -8.09017 -5.87785 0
    endloop
  endfacet
  facet normal 0 0 -1
    outer loop
      vertex -9.13545 -4.06737 0
      vertex -9.48803 -2.01674 0
      vertex -8.86139 -3.94534 0
    endloop
  endfacet
  facet normal -0 0 -1
    outer loop
      vertex -9.48803 -2.01674 0
      vertex -9.78148 -2.07912 0
      vertex -9.7 0 0
    endloop
  endfacet
  facet normal 0 0 -1
    outer loop
      vertex -9.78148 -2.07912 0
      vertex -9.48803 -2.01674 0
      vertex -9.13545 -4.06737 0
    endloop
  endfacet
  facet normal 0 0 -1
    outer loop
      vertex 9.48803 2.01674 0
      vertex 9.78148 2.07912 0
      vertex 9.7 0 0
    endloop
  endfacet
  facet normal 0 0 -1
    outer loop
      vertex 9.48803 2.01674 0
      vertex 9.13545 4.06737 0
      vertex 9.78148 2.07912 0
    endloop
  endfacet
  facet normal 0 0 -1
    outer loop
      vertex 8.86139 3.94534 0
      vertex 9.13545 4.06737 0
      vertex 9.48803 2.01674 0
    endloop
  endfacet
  facet normal 0 0 -1
    outer loop
      vertex 8.86139 3.94534 0
      vertex 8.09017 5.87785 0
      vertex 9.13545 4.06737 0
    endloop
  endfacet
  facet normal 0 0 -1
    outer loop
      vertex 7.84746 5.70152 0
      vertex 8.09017 5.87785 0
      vertex 8.86139 3.94534 0
    endloop
  endfacet
  facet normal 0 0 -1
    outer loop
      vertex 7.84746 5.70152 0
      vertex 6.69131 7.43145 0
      vertex 8.09017 5.87785 0
    endloop
  endfacet
  facet normal 0 0 -1
    outer loop
      vertex 6.49057 7.2085 0
      vertex 6.69131 7.43145 0
      vertex 7.84746 5.70152 0
    endloop
  endfacet
  facet normal 0 0 -1
    outer loop
      vertex 6.49057 7.2085 0
      vertex 5 8.66025 0
      vertex 6.69131 7.43145 0
    endloop
  endfacet
  facet normal 0 0 -1
    outer loop
      vertex 4.85 8.40045 0
      vertex 5 8.66025 0
      vertex 6.49057 7.2085 0
    endloop
  endfacet
  facet normal 0 0 -1
    outer loop
      vertex 4.85 8.40045 0
      vertex 3.09017 9.51056 0
      vertex 5 8.66025 0
    endloop
  endfacet
  facet normal 0 0 -1
    outer loop
      vertex 2.99746 9.22525 0
      vertex 3.09017 9.51056 0
      vertex 4.85 8.40045 0
    endloop
  endfacet
  facet normal 0 0 -1
    outer loop
      vertex 2.99746 9.22525 0
      vertex 1.04528 9.94522 0
      vertex 3.09017 9.51056 0
    endloop
  endfacet
  facet normal 0 0 -1
    outer loop
      vertex 1.01393 9.64686 0
      vertex 1.04528 9.94522 0
      vertex 2.99746 9.22525 0
    endloop
  endfacet
  facet normal 0 0 -1
    outer loop
      vertex -1.01393 9.64686 0
      vertex 1.04528 9.94522 0
      vertex 1.01393 9.64686 0
    endloop
  endfacet
  facet normal 0 0 -1
    outer loop
      vertex -1.01393 9.64686 0
      vertex -1.04528 9.94522 0
      vertex 1.04528 9.94522 0
    endloop
  endfacet
  facet normal 0 0 -1
    outer loop
      vertex -2.99746 9.22525 0
      vertex -1.04528 9.94522 0
      vertex -1.01393 9.64686 0
    endloop
  endfacet
  facet normal 0 0 -1
    outer loop
      vertex -2.99746 9.22525 0
      vertex -3.09017 9.51056 0
      vertex -1.04528 9.94522 0
    endloop
  endfacet
  facet normal 0 0 -1
    outer loop
      vertex -4.85 8.40045 0
      vertex -3.09017 9.51056 0
      vertex -2.99746 9.22525 0
    endloop
  endfacet
  facet normal 0 0 -1
    outer loop
      vertex -4.85 8.40045 0
      vertex -5 8.66025 0
      vertex -3.09017 9.51056 0
    endloop
  endfacet
  facet normal 0 0 -1
    outer loop
      vertex -6.49057 7.2085 0
      vertex -5 8.66025 0
      vertex -4.85 8.40045 0
    endloop
  endfacet
  facet normal 0 0 -1
    outer loop
      vertex -6.49057 7.2085 0
      vertex -6.69131 7.43145 0
      vertex -5 8.66025 0
    endloop
  endfacet
  facet normal 0 0 -1
    outer loop
      vertex -7.84746 5.70152 0
      vertex -6.69131 7.43145 0
      vertex -6.49057 7.2085 0
    endloop
  endfacet
  facet normal 0 0 -1
    outer loop
      vertex -7.84746 5.70152 0
      vertex -8.09017 5.87785 0
      vertex -6.69131 7.43145 0
    endloop
  endfacet
  facet normal 0 0 -1
    outer loop
      vertex -8.86139 3.94534 0
      vertex -8.09017 5.87785 0
      vertex -7.84746 5.70152 0
    endloop
  endfacet
  facet normal 0 0 -1
    outer loop
      vertex -8.86139 3.94534 0
      vertex -9.13545 4.06737 0
      vertex -8.09017 5.87785 0
    endloop
  endfacet
  facet normal 0 0 -1
    outer loop
      vertex -9.48803 2.01674 0
      vertex -9.13545 4.06737 0
      vertex -8.86139 3.94534 0
    endloop
  endfacet
  facet normal 0 0 -1
    outer loop
      vertex -9.48803 2.01674 0
      vertex -9.78148 2.07912 0
      vertex -9.13545 4.06737 0
    endloop
  endfacet
  facet normal 0 0 -1
    outer loop
      vertex -9.7 0 0
      vertex -9.78148 2.07912 0
      vertex -9.48803 2.01674 0
    endloop
  endfacet
  facet normal 0 0 -1
    outer loop
      vertex -10 0 0
      vertex -9.7 0 0
      vertex -9.78148 -2.07912 0
    endloop
  endfacet
  facet normal 0 0 -1
    outer loop
      vertex -9.7 0 0
      vertex -10 0 0
      vertex -9.78148 2.07912 0
    endloop
  endfacet
  facet normal 0.207911 -0.978148 0
    outer loop
      vertex 1.04528 -9.94522 0
      vertex 3.09017 -9.51056 20
      vertex 1.04528 -9.94522 20
    endloop
  endfacet
  facet normal 0.207911 -0.978148 0
    outer loop
      vertex 3.09017 -9.51056 20
      vertex 1.04528 -9.94522 0
      vertex 3.09017 -9.51056 0
    endloop
  endfacet
  facet normal 0.866026 -0.5 0
    outer loop
      vertex 8.09017 -5.87785 20
      vertex 9.13545 -4.06737 0
      vertex 9.13545 -4.06737 20
    endloop
  endfacet
  facet normal 0.866026 -0.5 0
    outer loop
      vertex 9.13545 -4.06737 0
      vertex 8.09017 -5.87785 20
      vertex 8.09017 -5.87785 0
    endloop
  endfacet
  facet normal -0.866026 -0.5 0
    outer loop
      vertex -8.09017 -5.87785 0
      vertex -9.13545 -4.06737 20
      vertex -9.13545 -4.06737 0
    endloop
  endfacet
  facet normal -0.866026 -0.5 0
    outer loop
      vertex -9.13545 -4.06737 20
      vertex -8.09017 -5.87785 0
      vertex -8.09017 -5.87785 20
    endloop
  endfacet
  facet normal 0.587785 -0.809017 0
    outer loop
      vertex 5 -8.66025 0
      vertex 6.69131 -7.43145 20
      vertex 5 -8.66025 20
    endloop
  endfacet
  facet normal 0.587785 -0.809017 0
    outer loop
      vertex 6.69131 -7.43145 20
      vertex 5 -8.66025 0
      vertex 6.69131 -7.43145 0
    endloop
  endfacet
  facet normal 0.406737 -0.913545 0
    outer loop
      vertex 3.09017 -9.51056 0
      vertex 5 -8.66025 20
      vertex 3.09017 -9.51056 20
    endloop
  endfacet
  facet normal 0.406737 -0.913545 0
    outer loop
      vertex 5 -8.66025 20
      vertex 3.09017 -9.51056 0
      vertex 5 -8.66025 0
    endloop
  endfacet
  facet normal -0.207911 -0.978148 0
    outer loop
      vertex -3.09017 -9.51056 0
      vertex -1.04528 -9.94522 20
      vertex -3.09017 -9.51056 20
    endloop
  endfacet
  facet normal -0.207911 -0.978148 -0
    outer loop
      vertex -1.04528 -9.94522 20
      vertex -3.09017 -9.51056 0
      vertex -1.04528 -9.94522 0
    endloop
  endfacet
  facet normal -0.743145 -0.669131 0
    outer loop
      vertex -6.69131 -7.43145 0
      vertex -8.09017 -5.87785 20
      vertex -8.09017 -5.87785 0
    endloop
  endfacet
  facet normal -0.743145 -0.669131 0
    outer loop
      vertex -8.09017 -5.87785 20
      vertex -6.69131 -7.43145 0
      vertex -6.69131 -7.43145 20
    endloop
  endfacet
  facet normal -0.951057 -0.309017 0
    outer loop
      vertex -9.13545 -4.06737 0
      vertex -9.78148 -2.07912 20
      vertex -9.78148 -2.07912 0
    endloop
  endfacet
  facet normal -0.951057 -0.309017 0
    outer loop
      vertex -9.78148 -2.07912 20
      vertex -9.13545 -4.06737 0
      vertex -9.13545 -4.06737 20
    endloop
  endfacet
  facet normal -0.994522 -0.104529 0
    outer loop
      vertex -9.78148 -2.07912 0
      vertex -10 0 20
      vertex -10 0 0
    endloop
  endfacet
  facet normal -0.994522 -0.104529 0
    outer loop
      vertex -10 0 20
      vertex -9.78148 -2.07912 0
      vertex -9.78148 -2.07912 20
    endloop
  endfacet
  facet normal 0.743145 -0.669131 0
    outer loop
      vertex 6.69131 -7.43145 20
      vertex 8.09017 -5.87785 0
      vertex 8.09017 -5.87785 20
    endloop
  endfacet
  facet normal 0.743145 -0.669131 0
    outer loop
      vertex 8.09017 -5.87785 0
      vertex 6.69131 -7.43145 20
      vertex 6.69131 -7.43145 0
    endloop
  endfacet
  facet normal -0.406737 -0.913545 0
    outer loop
      vertex -5 -8.66025 0
      vertex -3.09017 -9.51056 20
      vertex -5 -8.66025 20
    endloop
  endfacet
  facet normal -0.406737 -0.913545 -0
    outer loop
      vertex -3.09017 -9.51056 20
      vertex -5 -8.66025 0
      vertex -3.09017 -9.51056 0
    endloop
  endfacet
  facet normal -0.587785 -0.809017 0
    outer loop
      vertex -6.69131 -7.43145 0
      vertex -5 -8.66025 20
      vertex -6.69131 -7.43145 20
    endloop
  endfacet
  facet normal -0.587785 -0.809017 -0
    outer loop
      vertex -5 -8.66025 20
      vertex -6.69131 -7.43145 0
      vertex -5 -8.66025 0
    endloop
  endfacet
  facet normal -0.866025 -0.5 0
    outer loop
      vertex 8.86139 3.94534 0
      vertex 7.84746 5.70152 20
      vertex 7.84746 5.70152 0
    endloop
  endfacet
  facet normal -0.866025 -0.5 0
    outer loop
      vertex 7.84746 5.70152 20
      vertex 8.86139 3.94534 0
      vertex 8.86139 3.94534 20
    endloop
  endfacet
  facet normal 0.951056 -0.309017 0
    outer loop
      vertex -9.48803 2.01674 20
      vertex -8.86139 3.94534 0
      vertex -8.86139 3.94534 20
    endloop
  endfacet
  facet normal 0.951056 -0.309017 0
    outer loop
      vertex -8.86139 3.94534 0
      vertex -9.48803 2.01674 20
      vertex -9.48803 2.01674 0
    endloop
  endfacet
  facet normal -0.743145 -0.669131 0
    outer loop
      vertex 7.84746 5.70152 0
      vertex 6.49057 7.2085 20
      vertex 6.49057 7.2085 0
    endloop
  endfacet
  facet normal -0.743145 -0.669131 0
    outer loop
      vertex 6.49057 7.2085 20
      vertex 7.84746 5.70152 0
      vertex 7.84746 5.70152 20
    endloop
  endfacet
  facet normal -0.406736 -0.913546 0
    outer loop
      vertex 2.99746 9.22525 0
      vertex 4.85 8.40045 20
      vertex 2.99746 9.22525 20
    endloop
  endfacet
  facet normal -0.406736 -0.913546 -0
    outer loop
      vertex 4.85 8.40045 20
      vertex 2.99746 9.22525 0
      vertex 4.85 8.40045 0
    endloop
  endfacet
  facet normal 0.406736 -0.913546 0
    outer loop
      vertex -4.85 8.40045 0
      vertex -2.99746 9.22525 20
      vertex -4.85 8.40045 20
    endloop
  endfacet
  facet normal 0.406736 -0.913546 0
    outer loop
      vertex -2.99746 9.22525 20
      vertex -4.85 8.40045 0
      vertex -2.99746 9.22525 0
    endloop
  endfacet
  facet normal 0.866025 -0.5 0
    outer loop
      vertex -8.86139 3.94534 20
      vertex -7.84746 5.70152 0
      vertex -7.84746 5.70152 20
    endloop
  endfacet
  facet normal 0.866025 -0.5 0
    outer loop
      vertex -7.84746 5.70152 0
      vertex -8.86139 3.94534 20
      vertex -8.86139 3.94534 0
    endloop
  endfacet
  facet normal 0.587785 -0.809017 0
    outer loop
      vertex -6.49057 7.2085 0
      vertex -4.85 8.40045 20
      vertex -6.49057 7.2085 20
    endloop
  endfacet
  facet normal 0.587785 -0.809017 0
    outer loop
      vertex -4.85 8.40045 20
      vertex -6.49057 7.2085 0
      vertex -4.85 8.40045 0
    endloop
  endfacet
  facet normal -0.994522 0.104529 0
    outer loop
      vertex 9.48803 -2.01674 0
      vertex 9.7 0 20
      vertex 9.7 0 0
    endloop
  endfacet
  facet normal -0.994522 0.104529 0
    outer loop
      vertex 9.7 0 20
      vertex 9.48803 -2.01674 0
      vertex 9.48803 -2.01674 20
    endloop
  endfacet
  facet normal -0.207912 0.978148 0
    outer loop
      vertex 2.99746 -9.22525 0
      vertex 1.01393 -9.64686 20
      vertex 2.99746 -9.22525 20
    endloop
  endfacet
  facet normal -0.207912 0.978148 0
    outer loop
      vertex 1.01393 -9.64686 20
      vertex 2.99746 -9.22525 0
      vertex 1.01393 -9.64686 0
    endloop
  endfacet
  facet normal -0.951056 -0.309017 0
    outer loop
      vertex 9.48803 2.01674 0
      vertex 8.86139 3.94534 20
      vertex 8.86139 3.94534 0
    endloop
  endfacet
  facet normal -0.951056 -0.309017 0
    outer loop
      vertex 8.86139 3.94534 20
      vertex 9.48803 2.01674 0
      vertex 9.48803 2.01674 20
    endloop
  endfacet
  facet normal 0 -1 0
    outer loop
      vertex -1.01393 9.64686 0
      vertex 1.01393 9.64686 20
      vertex -1.01393 9.64686 20
    endloop
  endfacet
  facet normal 0 -1 -0
    outer loop
      vertex 1.01393 9.64686 20
      vertex -1.01393 9.64686 0
      vertex 1.01393 9.64686 0
    endloop
  endfacet
  facet normal -0.587785 -0.809017 0
    outer loop
      vertex 4.85 8.40045 0
      vertex 6.49057 7.2085 20
      vertex 4.85 8.40045 20
    endloop
  endfacet
  facet normal -0.587785 -0.809017 -0
    outer loop
      vertex 6.49057 7.2085 20
      vertex 4.85 8.40045 0
      vertex 6.49057 7.2085 0
    endloop
  endfacet
  facet normal 0.994522 -0.104529 0
    outer loop
      vertex -9.7 0 20
      vertex -9.48803 2.01674 0
      vertex -9.48803 2.01674 20
    endloop
  endfacet
  facet normal 0.994522 -0.104529 0
    outer loop
      vertex -9.48803 2.01674 0
      vertex -9.7 0 20
      vertex -9.7 0 0
    endloop
  endfacet
  facet normal 0.743145 -0.669131 0
    outer loop
      vertex -7.84746 5.70152 20
      vertex -6.49057 7.2085 0
      vertex -6.49057 7.2085 20
    endloop
  endfacet
  facet normal 0.743145 -0.669131 0
    outer loop
      vertex -6.49057 7.2085 0
      vertex -7.84746 5.70152 20
      vertex -7.84746 5.70152 0
    endloop
  endfacet
  facet normal 0.207912 -0.978148 0
    outer loop
      vertex -2.99746 9.22525 0
      vertex -1.01393 9.64686 20
      vertex -2.99746 9.22525 20
    endloop
  endfacet
  facet normal 0.207912 -0.978148 0
    outer loop
      vertex -1.01393 9.64686 20
      vertex -2.99746 9.22525 0
      vertex -1.01393 9.64686 0
    endloop
  endfacet
  facet normal -0.994522 -0.104529 0
    outer loop
      vertex 9.7 0 0
      vertex 9.48803 2.01674 20
      vertex 9.48803 2.01674 0
    endloop
  endfacet
  facet normal -0.994522 -0.104529 0
    outer loop
      vertex 9.48803 2.01674 20
      vertex 9.7 0 0
      vertex 9.7 0 20
    endloop
  endfacet
  facet normal 0.207912 0.978148 -0
    outer loop
      vertex -1.01393 -9.64686 0
      vertex -2.99746 -9.22525 20
      vertex -1.01393 -9.64686 20
    endloop
  endfacet
  facet normal 0.207912 0.978148 0
    outer loop
      vertex -2.99746 -9.22525 20
      vertex -1.01393 -9.64686 0
      vertex -2.99746 -9.22525 0
    endloop
  endfacet
  facet normal -0.587785 0.809017 0
    outer loop
      vertex 6.49057 -7.2085 0
      vertex 4.85 -8.40045 20
      vertex 6.49057 -7.2085 20
    endloop
  endfacet
  facet normal -0.587785 0.809017 0
    outer loop
      vertex 4.85 -8.40045 20
      vertex 6.49057 -7.2085 0
      vertex 4.85 -8.40045 0
    endloop
  endfacet
  facet normal -0.207912 -0.978148 0
    outer loop
      vertex 1.01393 9.64686 0
      vertex 2.99746 9.22525 20
      vertex 1.01393 9.64686 20
    endloop
  endfacet
  facet normal -0.207912 -0.978148 -0
    outer loop
      vertex 2.99746 9.22525 20
      vertex 1.01393 9.64686 0
      vertex 2.99746 9.22525 0
    endloop
  endfacet
  facet normal -0.951056 0.309017 0
    outer loop
      vertex 8.86139 -3.94534 0
      vertex 9.48803 -2.01674 20
      vertex 9.48803 -2.01674 0
    endloop
  endfacet
  facet normal -0.951056 0.309017 0
    outer loop
      vertex 9.48803 -2.01674 20
      vertex 8.86139 -3.94534 0
      vertex 8.86139 -3.94534 20
    endloop
  endfacet
  facet normal -0.866025 0.5 0
    outer loop
      vertex 7.84746 -5.70152 0
      vertex 8.86139 -3.94534 20
      vertex 8.86139 -3.94534 0
    endloop
  endfacet
  facet normal -0.866025 0.5 0
    outer loop
      vertex 8.86139 -3.94534 20
      vertex 7.84746 -5.70152 0
      vertex 7.84746 -5.70152 20
    endloop
  endfacet
  facet normal 0.994522 0.104529 0
    outer loop
      vertex -9.48803 -2.01674 20
      vertex -9.7 0 0
      vertex -9.7 0 20
    endloop
  endfacet
  facet normal 0.994522 0.104529 0
    outer loop
      vertex -9.7 0 0
      vertex -9.48803 -2.01674 20
      vertex -9.48803 -2.01674 0
    endloop
  endfacet
  facet normal -0.743145 0.669131 0
    outer loop
      vertex 6.49057 -7.2085 0
      vertex 7.84746 -5.70152 20
      vertex 7.84746 -5.70152 0
    endloop
  endfacet
  facet normal -0.743145 0.669131 0
    outer loop
      vertex 7.84746 -5.70152 20
      vertex 6.49057 -7.2085 0
      vertex 6.49057 -7.2085 20
    endloop
  endfacet
  facet normal 0.587785 0.809017 -0
    outer loop
      vertex -4.85 -8.40045 0
      vertex -6.49057 -7.2085 20
      vertex -4.85 -8.40045 20
    endloop
  endfacet
  facet normal 0.587785 0.809017 0
    outer loop
      vertex -6.49057 -7.2085 20
      vertex -4.85 -8.40045 0
      vertex -6.49057 -7.2085 0
    endloop
  endfacet
  facet normal 0 1 -0
    outer loop
      vertex 1.01393 -9.64686 0
      vertex -1.01393 -9.64686 20
      vertex 1.01393 -9.64686 20
    endloop
  endfacet
  facet normal 0 1 0
    outer loop
      vertex -1.01393 -9.64686 20
      vertex 1.01393 -9.64686 0
      vertex -1.01393 -9.64686 0
    endloop
  endfacet
  facet normal 0.951056 0.309017 0
    outer loop
      vertex -8.86139 -3.94534 20
      vertex -9.48803 -2.01674 0
      vertex -9.48803 -2.01674 20
    endloop
  endfacet
  facet normal 0.951056 0.309017 0
    outer loop
      vertex -9.48803 -2.01674 0
      vertex -8.86139 -3.94534 20
      vertex -8.86139 -3.94534 0
    endloop
  endfacet
  facet normal 0.743145 0.669131 0
    outer loop
      vertex -6.49057 -7.2085 20
      vertex -7.84746 -5.70152 0
      vertex -7.84746 -5.70152 20
    endloop
  endfacet
  facet normal 0.743145 0.669131 0
    outer loop
      vertex -7.84746 -5.70152 0
      vertex -6.49057 -7.2085 20
      vertex -6.49057 -7.2085 0
    endloop
  endfacet
  facet normal 0.866025 0.5 0
    outer loop
      vertex -7.84746 -5.70152 20
      vertex -8.86139 -3.94534 0
      vertex -8.86139 -3.94534 20
    endloop
  endfacet
  facet normal 0.866025 0.5 0
    outer loop
      vertex -8.86139 -3.94534 0
      vertex -7.84746 -5.70152 20
      vertex -7.84746 -5.70152 0
    endloop
  endfacet
  facet normal -0.406736 0.913546 0
    outer loop
      vertex 4.85 -8.40045 0
      vertex 2.99746 -9.22525 20
      vertex 4.85 -8.40045 20
    endloop
  endfacet
  facet normal -0.406736 0.913546 0
    outer loop
      vertex 2.99746 -9.22525 20
      vertex 4.85 -8.40045 0
      vertex 2.99746 -9.22525 0
    endloop
  endfacet
  facet normal 0.406736 0.913546 -0
    outer loop
      vertex -2.99746 -9.22525 0
      vertex -4.85 -8.40045 20
      vertex -2.99746 -9.22525 20
    endloop
  endfacet
  facet normal 0.406736 0.913546 0
    outer loop
      vertex -4.85 -8.40045 20
      vertex -2.99746 -9.22525 0
      vertex -4.85 -8.40045 0
    endloop
  endfacet
endsolid OpenSCAD_Model
